# AST/ASF file generated using VICON BodyLanguage
# -----------------------------------------------
:version 1.10
:name VICON
:units
  mass 1.0
  length 0.45
  angle deg
:documentation
   .ast/.asf automatically generated from VICON data using
   VICON BodyBuilder and BodyLanguage model FoxedUp or BRILLIANT.MOD
:root
   order TX TY TZ RX RY RZ
   axis XYZ
   position 0 0 0  
   orientation 0 0 0 
:bonedata
  begin
     id 1 
     name lhipjoint
     direction 0.661853 -0.702389 0.261917 
     length 2.64193 
     axis 0 0 0  XYZ
  end
  begin
     id 2 
     name lfemur
     direction 0.34202 -0.939693 0  
     length 7.01722  
     axis 0 0 20  XYZ
    dof rx ry rz
    limits (-160.0 20.0)
           (-70.0 70.0)
           (-60.0 70.0)
  end
  begin
     id 3 
     name ltibia
     direction 0.34202 -0.939693 0   
     length 8.25008   
     axis 0 0 20   XYZ
    dof rx
    limits (-10.0 170.0)
  end
  begin
     id 4 
     name lfoot
     direction 0.0709916 -0.195048 0.978221   
     length 2.31941   
     axis -90 7.62852e-016 20   XYZ
    dof rx rz
    limits (-45.0 90.0)
           (-70.0 20.0)
  end
  begin
     id 5 
     name ltoes
     direction 1.53586e-011 -4.22017e-011 1   
     length 1.16486   
     axis -90 7.62852e-016 20   XYZ
    dof rx
    limits (-90.0 20.0)
  end
  begin
     id 6 
     name rhipjoint
     direction -0.638185 -0.721362 0.268992   
     length 2.57244  
     axis 0 0 0  XYZ 
  end
  begin
     id 7 
     name rfemur
     direction -0.34202 -0.939693 0   
     length 7.07017   
     axis 0 0 -20   XYZ
    dof rx ry rz
    limits (-160.0 20.0)
           (-70.0 70.0)
           (-70.0 60.0)
  end
  begin
     id 8 
     name rtibia
     direction -0.34202 -0.939693 0   
     length 8.20386   
     axis 0 0 -20   XYZ
    dof rx
    limits (-10.0 170.0)
 end
 begin
     id 9 
     name rfoot
     direction -0.0822429 -0.225961 0.970658   
     length 2.32215  
     axis -90 -7.62852e-016 -20   XYZ
    dof rx rz
    limits (-45.0 90.0)
           (-20.0 70.0)
  end
  begin
     id 10 
     name rtoes
     direction -1.53597e-011 -4.21689e-011 1   
     length 1.16333   
     axis -90 -7.62852e-016 -20   XYZ
    dof rx
    limits (-90.0 20.0)
  end
  begin
     id 11 
     name lowerback
     direction -0.0131557 0.998589 -0.0514484   
     length 2.14993   
     axis 0 0 0   XYZ
    dof rx ry rz
    limits (-20.0 45.0)
           (-30.0 30.0)
           (-30.0 30.0)
  end
  begin
     id 12 
     name upperback
     direction -0.000776481 0.999993 0.00352685   
     length 2.15301   
     axis 0 0 0   XYZ
    dof rx ry rz
    limits (-20.0 45.0)
           (-30.0 30.0)
           (-30.0 30.0)
  end
  begin
     id 13 
     name thorax
     direction 0.00438186 0.999609 0.0276143   
     length 2.15424   
     axis 0 0 0   XYZ
    dof rx ry rz
    limits (-20.0 45.0)
           (-30.0 30.0)
           (-30.0 30.0)
  end
  begin
     id 14 
     name lowerneck
     direction -0.0488006 0.998094 0.0377807   
     length 1.90481   
     axis 0 0 0   XYZ
    dof rx ry rz
    limits (-20.0 45.0)
           (-30.0 30.0)
           (-30.0 30.0)
  end
  begin
     id 15 
     name upperneck
     direction 0.0443769 0.990702 -0.12861   
     length 1.91305   
     axis 0 0 0   XYZ
    dof rx ry rz
    limits (-20.0 45.0)
           (-30.0 30.0)
           (-30.0 30.0)
  end
  begin
     id 16
     name head
     direction 0.0165599 0.998647 -0.0492982  
     length 1.92369  
     axis 0 0 0   XYZ
    dof rx ry rz
    limits (-20.0 45.0)
           (-30.0 30.0)
           (-30.0 30.0)
  end
  begin
     id 17 
     name lclavicle
     direction 0.911936 0.410197 -0.0105506  
     length 3.52622  
     axis 0 0 0   XYZ
    dof ry rz
    limits (-20.0 10.0)
           (0.0 20.0)
  end
  begin
     id 18 
     name lhumerus
     direction 1 -4.48974e-011 -2.48591e-028   
     length 5.47651   
     axis 180 -30 -90   XYZ
    dof rx ry rz
    limits (-60.0 90.0)
           (-90.0 90.0)
           (-90.0 90.0)
  end
  begin
     id 19
     name lradius
     direction 1 -4.48938e-011 -4.40099e-027   
     length 3.09058   
     axis 180 -30 -90   XYZ
    dof rx
    limits (-10.0 170.0)
  end
  begin
     id 20
     name lwrist
     direction 1 -4.49042e-011 -2.99852e-027   
     length 1.54529   
     axis 1.95339e-015 90 90   XYZ
    dof ry
    limits (-180.0 0.0)
 end
  begin
     id 21 
     name lhand
     direction 1 -4.48815e-011 -5.98193e-027   
     length 0.771611   
     axis 3.82337e-015 90 90   XYZ
    dof rx rz
    limits (-90.0 90.0)
           (-45.0 45.0)
  end
  begin
     id 22 
     name lfingers
     direction 1 -4.49034e-011 -1.1993e-026   
     length 0.622093   
     axis 7.64668e-015 90 90   XYZ
    dof rx
    limits (0.0 90.0)
  end
  begin
     id 23
     name lthumb
     direction 0.707107 -6.34867e-011 0.707107   
     length 0.893204   
     axis -90 45 -1.62303e-014   XYZ
    dof rx rz
    limits (-45.0 45.0)
           (-45.0 45.0)
  end
  begin
     id 24 
     name rclavicle
     direction -0.93442 0.355634 -0.0195692   
     length 3.62463  
     axis 0 0 0   XYZ 
    dof ry rz
    limits (-10.0 20.0)
           (-20.0 0.0)
  end
  begin
     id 25 
     name rhumerus
     direction -1 -4.48957e-011 -1.19147e-027  
     length 5.14182   
     axis 180 30 90   XYZ
    dof rx ry rz
    limits (-90.0 60.0)
           (-90.0 90.0)
           (-90.0 90.0)
  end
  begin
     id 26 
     name rradius
     direction -1 -4.48952e-011 -3.81062e-027   
     length 3.35565   
     axis 180 30 90   XYZ
    dof rx
    limits (-10.0 170.0)
  end
  begin
     id 27 
     name rwrist
     direction -1 -4.48973e-011 -2.99621e-027   
     length 1.67782   
     axis 1.95339e-015 -90 -90   XYZ
    dof ry
    limits (-180.0 0.0)
  end
  begin
     id 28
     name rhand
     direction -1 -4.48895e-011 -5.98727e-027   
     length 0.801042   
     axis 3.82337e-015 -90 -90   XYZ
    dof rx rz
    limits (-90.0 90.0)
           (-45.0 45.0)
  end
  begin
     id 29
     name rfingers
     direction -1 -4.49065e-011 -1.19972e-026   
     length 0.645821   
     axis 7.64668e-015 -90 -90   XYZ
    dof rx
    limits (0.0 90.0)
  end
  begin
     id 30
     name rthumb
     direction -0.707107 -6.34957e-011 0.707107   
     length 0.927273   
     axis -90 -45 1.62303e-014   XYZ
    dof rx rz
    limits (-45.0 45.0)
           (-45.0 45.0)
  end
:hierarchy
  begin
    root lhipjoint rhipjoint lowerback
    lhipjoint lfemur
    lfemur ltibia
    ltibia lfoot
    lfoot ltoes
    rhipjoint rfemur
    rfemur rtibia
    rtibia rfoot
    rfoot rtoes
    lowerback upperback
    upperback thorax
    thorax lowerneck lclavicle rclavicle
    lowerneck upperneck
    upperneck head
    lclavicle lhumerus
    lhumerus lradius
    lradius lwrist
    lwrist lhand lthumb
    lhand lfingers
    rclavicle rhumerus
    rhumerus rradius
    rradius rwrist
    rwrist rhand rthumb
    rhand rfingers
  end

#!OML:ASF E:\Style4\Style4.ASF
:FULLY-SPECIFIED
:DEGREES
695
root -0.16887 16.9742 -2.77685 4.69405 -2.42965 3.26346
lowerback 17.596 2.65991 1.34146
upperback 11.7502 3.6324 -1.04785
thorax 2.91833 1.94521 -2.38438
lowerneck 2.59085 -5.20634 -6.24343
upperneck 1.98785 -7.17527 8.33625
head 0.762227 -3.61835 3.79343
rclavicle 5.88403e-014 -3.93594e-014
rhumerus -4.16239 50.8582 -50.887
rradius 68.6792
rwrist -75.71
rhand 9.64095 2.76214
rfingers 7.12502
rthumb 34.7857 -23.8437
lclavicle 5.88403e-014 -3.93594e-014
lhumerus 6.26746 8.15186 68.4461
lradius 46.5894
lwrist 73.0813
lhand 2.34777 34.8421
lfingers 7.12502
lthumb 27.8371 62.7999
rfemur -34.6244 -1.52825 17.4534
rtibia 52.1155
rfoot -21.6947 -10.3827
rtoes -9.95394
lfemur -32.0647 2.07058 -21.7016
ltibia 49.3922
lfoot -21.6586 7.21056
ltoes -14.8942
696
root -0.162552 16.995 -2.7766 4.71096 -2.39152 3.20778
lowerback 17.4025 2.56973 1.02909
upperback 11.8116 3.47328 -0.955404
thorax 3.04864 1.84451 -2.07803
lowerneck 2.47065 -5.07787 -6.35186
upperneck 2.12292 -7.00538 8.19433
head 0.811481 -3.53116 3.76164
rclavicle 5.96354e-015 -1.23246e-014
rhumerus -3.81409 51.7546 -49.5682
rradius 67.4542
rwrist -75.9421
rhand 6.8178 2.90651
rfingers 7.12502
rthumb 32.1023 -24.2789
lclavicle 5.96354e-015 -1.23246e-014
lhumerus 6.20863 1.76432 66.5818
lradius 45.026
lwrist 72.7829
lhand 0.102334 36.1261
lfingers 7.12502
lthumb 25.6884 64.4127
rfemur -34.3606 -1.51573 17.4819
rtibia 51.6943
rfoot -21.5805 -10.1697
rtoes -8.92514
lfemur -31.8723 1.96384 -21.6524
ltibia 49.0239
lfoot -21.6118 7.26395
ltoes -14.7971
697
root -0.156112 17.0176 -2.77763 4.77353 -2.35935 3.03289
lowerback 17.2365 2.47311 0.798608
upperback 11.8561 3.31672 -0.811774
thorax 3.1509 1.74671 -1.76676
lowerneck 2.18061 -4.97336 -6.38241
upperneck 2.41163 -6.86158 7.90844
head 0.93328 -3.45263 3.65765
rclavicle -3.45885e-014 1.55052e-014
rhumerus -3.27731 52.8116 -48.0326
rradius 66.4044
rwrist -76.2362
rhand 3.82168 2.88092
rfingers 7.12502
rthumb 29.2454 -24.8404
lclavicle -3.45885e-014 1.55052e-014
lhumerus 6.16864 -5.18008 64.4586
lradius 44.3148
lwrist 72.6416
lhand -1.68108 37.754
lfingers 7.12502
lthumb 23.9792 66.2763
rfemur -34.1227 -1.51313 17.65
rtibia 51.2533
rfoot -21.4328 -9.99994
rtoes -8.17095
lfemur -31.705 1.85324 -21.4561
ltibia 48.6108
lfoot -21.4557 7.19049
ltoes -14.2156
698
root -0.148842 17.0457 -2.77915 4.81595 -2.30683 2.90676
lowerback 17.1838 2.37394 0.600374
upperback 11.875 3.16151 -0.718459
thorax 3.17462 1.6529 -1.53345
lowerneck 1.8734 -4.86585 -6.38056
upperneck 2.7132 -6.71193 7.65549
head 1.06228 -3.3713 3.5597
rclavicle -1.74931e-014 1.07344e-014
rhumerus -2.84165 54.0756 -46.5262
rradius 65.5762
rwrist -76.4496
rhand 0.491165 3.32378
rfingers 7.12502
rthumb 26.0607 -24.9085
lclavicle -1.74931e-014 1.07344e-014
lhumerus 6.00551 -12.279 62.1051
lradius 44.5981
lwrist 72.0056
lhand -2.63333 39.6178
lfingers 7.12502
lthumb 23.0658 68.2573
rfemur -33.8727 -1.54748 17.7587
rtibia 50.7745
rfoot -21.2516 -9.99328
rtoes -8.46659
lfemur -31.4816 1.71122 -21.3174
ltibia 48.149
lfoot -21.3044 7.09929
ltoes -13.3863
699
root -0.139842 17.0756 -2.77823 4.85748 -2.25069 2.86434
lowerback 17.2297 2.27139 0.384091
upperback 11.8473 2.99935 -0.666507
thorax 3.0998 1.55564 -1.33831
lowerneck 1.56069 -4.75498 -6.50614
upperneck 3.03425 -6.56144 7.52462
head 1.20936 -3.29095 3.52941
rclavicle -5.1684e-015 -1.59028e-015
rhumerus -2.64816 55.4295 -45.1552
rradius 65.0124
rwrist -76.4435
rhand -2.77585 4.18516
rfingers 7.12502
rthumb 22.9291 -24.4714
lclavicle -5.1684e-015 -1.59028e-015
lhumerus 5.77112 -19.3571 59.6522
lradius 45.746
lwrist 70.8066
lhand -2.95534 41.7398
lfingers 7.12502
lthumb 22.7568 70.4176
rfemur -33.5747 -1.63167 17.766
rtibia 50.2439
rfoot -21.0621 -9.85412
rtoes -8.01273
lfemur -31.2487 1.52923 -21.2951
ltibia 47.6765
lfoot -21.1557 7.24216
ltoes -13.3452
700
root -0.130254 17.1039 -2.778 4.91905 -2.26508 2.71842
lowerback 17.2292 2.2009 0.252054
upperback 11.8423 2.88928 -0.581906
thorax 3.07937 1.4884 -1.16026
lowerneck 1.25987 -4.68126 -6.58234
upperneck 3.2729 -6.45343 7.33033
head 1.3266 -3.23302 3.4689
rclavicle -5.00937e-014 3.18055e-014
rhumerus -2.49046 56.5764 -43.743
rradius 64.7182
rwrist -76.2531
rhand -5.41736 4.56137
rfingers 7.12502
rthumb 20.3924 -24.3879
lclavicle -5.00937e-014 3.18055e-014
lhumerus 5.63463 -26.0757 57.2271
lradius 47.5612
lwrist 69.6009
lhand -2.81467 43.404
lfingers 7.12502
lthumb 22.8918 72.0651
rfemur -33.3011 -1.60146 17.8821
rtibia 49.66
rfoot -20.8436 -9.72747
rtoes -7.35072
lfemur -31.0404 1.48042 -21.1764
ltibia 47.1897
lfoot -20.9388 7.50551
ltoes -13.9777
701
root -0.121455 17.1351 -2.77741 5.00998 -2.28918 2.54998
lowerback 17.1228 2.15795 0.141366
upperback 11.8755 2.81877 -0.486433
thorax 3.15779 1.44232 -0.982912
lowerneck 0.961707 -4.64176 -6.62429
upperneck 3.50128 -6.38847 7.12115
head 1.44166 -3.19697 3.39671
rclavicle 1.82882e-014 -7.95139e-015
rhumerus -2.27025 57.519 -42.2384
rradius 64.561
rwrist -76.0133
rhand -7.20588 4.56068
rfingers 7.12502
rthumb 18.6728 -24.5631
lclavicle 1.82882e-014 -7.95139e-015
lhumerus 5.66723 -32.2362 54.8503
lradius 49.799
lwrist 68.3356
lhand -2.32138 43.6832
lfingers 7.12502
lthumb 23.3651 72.285
rfemur -33.0438 -1.56424 18.0306
rtibia 49.0208
rfoot -20.613 -9.6794
rtoes -7.12157
lfemur -30.8481 1.43499 -21.0242
ltibia 46.6732
lfoot -20.6803 7.66558
ltoes -14.0971
702
root -0.111365 17.1702 -2.77459 5.09625 -2.28247 2.44246
lowerback 17.0241 2.10489 -0.00675294
upperback 11.9107 2.73082 -0.396655
thorax 3.23327 1.38548 -0.788755
lowerneck 0.811193 -4.57226 -6.6712
upperneck 3.55543 -6.28373 6.93181
head 1.47188 -3.14464 3.33856
rclavicle 4.29375e-014 -3.02153e-014
rhumerus -2.10563 58.3986 -40.744
rradius 64.5995
rwrist -75.623
rhand -8.31838 4.53349
rfingers 7.12502
rthumb 17.6025 -24.6897
lclavicle 4.29375e-014 -3.02153e-014
lhumerus 5.98036 -37.7158 52.4159
lradius 52.2211
lwrist 66.9032
lhand -1.19658 43.0989
lfingers 7.12502
lthumb 24.4438 71.5594
rfemur -32.7425 -1.59754 18.1144
rtibia 48.3479
rfoot -20.4007 -9.58346
rtoes -7.09655
lfemur -30.6053 1.28062 -20.9234
ltibia 46.1059
lfoot -20.4702 7.75513
ltoes -13.673
703
root -0.10087 17.2052 -2.77207 5.19974 -2.3061 2.32444
lowerback 16.8888 2.10624 -0.161949
upperback 11.915 2.71319 -0.303409
thorax 3.29496 1.36309 -0.596153
lowerneck 0.962721 -4.5182 -6.48781
upperneck 3.39638 -6.20418 6.65523
head 1.36823 -3.10804 3.21506
rclavicle 9.93923e-015 -8.34896e-015
rhumerus -2.2398 59.2371 -39.3951
rradius 64.9105
rwrist -75.1853
rhand -8.92184 4.55081
rfingers 7.12502
rthumb 17.0217 -24.7234
lclavicle 9.93923e-015 -8.34896e-015
lhumerus 6.52298 -42.5704 49.9625
lradius 54.7249
lwrist 65.2942
lhand 0.921929 41.8324
lfingers 7.12502
lthumb 26.4731 70.0033
rfemur -32.4347 -1.61456 18.2068
rtibia 47.6183
rfoot -20.0922 -9.51356
rtoes -7.29656
lfemur -30.3378 1.1468 -20.8072
ltibia 45.4844
lfoot -20.4056 7.79679
ltoes -12.9734
704
root -0.0899808 17.2408 -2.76925 5.30346 -2.37851 2.26621
lowerback 16.7458 2.1868 -0.36607
upperback 11.8373 2.79296 -0.233469
thorax 3.27064 1.38748 -0.415632
lowerneck 1.45975 -4.51197 -6.23803
upperneck 3.18334 -6.2043 6.42407
head 1.19213 -3.11486 3.10269
rclavicle -1.39149e-014 6.75868e-015
rhumerus -2.80946 60.198 -38.3469
rradius 65.3916
rwrist -74.8771
rhand -9.14994 4.69811
rfingers 7.12502
rthumb 16.8021 -24.5949
lclavicle -1.39149e-014 6.75868e-015
lhumerus 7.05634 -46.968 47.6379
lradius 57.3391
lwrist 63.5658
lhand 3.38936 39.7713
lfingers 7.12502
lthumb 28.8325 67.5637
rfemur -32.1263 -1.61161 18.2247
rtibia 46.8621
rfoot -19.823 -9.36616
rtoes -7.36999
lfemur -30.0385 1.07495 -20.7739
ltibia 44.812
lfoot -20.3091 7.92848
ltoes -12.7494
705
root -0.0790836 17.2808 -2.76359 5.40632 -2.44695 2.12146
lowerback 16.6602 2.26045 -0.403026
upperback 11.7258 2.88381 -0.161564
thorax 3.18725 1.42752 -0.331135
lowerneck 1.92267 -4.52318 -6.16732
upperneck 3.08203 -6.23428 6.34016
head 1.07407 -3.13644 3.07291
rclavicle -9.54166e-015 -2.78299e-015
rhumerus -3.53547 61.2352 -37.4879
rradius 65.8748
rwrist -74.5658
rhand -9.08677 4.88976
rfingers 7.12502
rthumb 16.8629 -24.3981
lclavicle -9.54166e-015 -2.78299e-015
lhumerus 7.51052 -50.7798 45.497
lradius 60.1645
lwrist 61.8671
lhand 5.34015 37.2986
lfingers 7.12502
lthumb 30.6944 64.7579
rfemur -31.7867 -1.59689 18.3404
rtibia 46.0614
rfoot -19.5195 -9.28585
rtoes -7.46322
lfemur -29.7247 1.0625 -20.661
ltibia 44.1225
lfoot -19.9935 8.13208
ltoes -13.1009
706
root -0.0705448 17.3224 -2.75696 5.5703 -2.50559 1.99989
lowerback 16.5936 2.36319 -0.267537
upperback 11.6878 3.0348 -0.196404
thorax 3.18992 1.51246 -0.461911
lowerneck 1.90413 -4.63199 -5.99169
upperneck 3.12082 -6.37669 6.31678
head 1.09195 -3.20506 3.02905
rclavicle -9.54166e-015 -3.57812e-015
rhumerus -4.88335 61.6845 -37.279
rradius 66.5379
rwrist -73.9845
rhand -8.81477 4.87855
rfingers 7.12502
rthumb 17.1247 -24.3868
lclavicle -9.54166e-015 -3.57812e-015
lhumerus 8.55861 -53.9607 42.9251
lradius 63.1035
lwrist 60.2381
lhand 6.78298 34.533
lfingers 7.12502
lthumb 32.0691 61.725
rfemur -31.4911 -1.56092 18.4405
rtibia 45.2565
rfoot -19.1524 -9.24529
rtoes -7.41479
lfemur -29.4594 1.06348 -20.564
ltibia 43.4
lfoot -19.6368 8.26264
ltoes -13.2055
707
root -0.0595988 17.3624 -2.75215 5.77006 -2.58059 1.87071
lowerback 16.5425 2.5368 0.124736
upperback 11.7995 3.31041 -0.332055
thorax 3.37296 1.68012 -0.854087
lowerneck 1.25051 -4.89946 -5.57217
upperneck 3.32848 -6.70666 6.23637
head 1.2755 -3.35457 2.89884
rclavicle 1.86858e-014 -2.10712e-014
rhumerus -7.16675 61.1706 -37.9082
rradius 67.5987
rwrist -72.9601
rhand -8.44827 4.57657
rfingers 7.12502
rthumb 17.4775 -24.6578
lclavicle 1.86858e-014 -2.10712e-014
lhumerus 10.8729 -56.5593 39.3319
lradius 66.0777
lwrist 58.707
lhand 7.98637 32.3124
lfingers 7.12502
lthumb 33.2141 59.2672
rfemur -31.2346 -1.47042 18.5298
rtibia 44.4536
rfoot -18.8479 -9.19716
rtoes -7.18726
lfemur -29.2338 1.03941 -20.4568
ltibia 42.6663
lfoot -19.3613 8.36947
ltoes -12.9854
